# xmcd
#
# Track frame offsets:
#     150
#     18806
#     37462
#     57199
#     71546
#     90910
#     111165
#     128578
#     146717
#     165445
#
# Disc length: 2610
#
# Revision: 13
# Processed by: cddbd v1.5.2PL0 Copyright (c) Steve Scherf et al.
# Submitted via: fre:ac v1.1beta1pre4
#
DISCID=7f0a300a
DTITLE=Amon Amarth / Twilight Of The Thunder God
DYEAR=2008
DGENRE=Metal
TTITLE0=Twilight Of The Thunder God
TTITLE1=Free Will Sacrifice
TTITLE2=Guardians Of Asgaard
TTITLE3=Where Is Your God?
TTITLE4=Varyags Of Miklagaard
TTITLE5=Tattered Banners And Bloody Flags
TTITLE6=No Fear For The Setting Sun
TTITLE7=The Hero
TTITLE8=Live For The Kill
TTITLE9=Embrace Of The Endless Ocean
EXTD=
EXTT0=
EXTT1=
EXTT2=
EXTT3=
EXTT4=
EXTT5=
EXTT6=
EXTT7=
EXTT8=
EXTT9=
PLAYORDER=
.
